<svg xmlns="http://www.w3.org/2000/svg" xmlns:xlink="http://www.w3.org/1999/xlink" width="1080" zoomAndPan="magnify" viewBox="0 0 810 449.999984" height="600" preserveAspectRatio="xMidYMid meet" version="1.0"><defs><clipPath id="b6ae45d664"><path d="M 11 78 L 266.703125 78 L 266.703125 351.902344 L 11 351.902344 Z M 11 78 " clip-rule="nonzero"/></clipPath></defs><rect x="-81" width="972" fill="#ffffff" y="-44.999998" height="539.99998" fill-opacity="1"/><rect x="-81" width="972" fill="#ffffff" y="-44.999998" height="539.99998" fill-opacity="1"/><rect x="-81" width="972" fill="#ffffff" y="-44.999998" height="539.99998" fill-opacity="1"/><g clip-path="url(#b6ae45d664)"><path fill="#4e9096" d="M 217.894531 156.253906 C 215.722656 158.449219 213.441406 160.75 211.207031 163.027344 L 161 159.824219 C 175.238281 144.554688 189.5 130.707031 203.160156 119.546875 C 204.601562 118.382812 204.816406 116.253906 203.632812 114.8125 C 202.429688 113.375 200.300781 113.179688 198.859375 114.363281 C 183.542969 126.855469 167.515625 142.640625 151.578125 160.039062 C 151.296875 160.253906 151.082031 160.492188 150.886719 160.792969 C 141.832031 170.707031 132.820312 181.136719 123.957031 191.800781 L 110.683594 144.039062 C 142.21875 108.511719 184.789062 78.363281 234.953125 86.945312 C 249.324219 89.394531 257.519531 93.460938 259.324219 99.050781 C 263.089844 110.683594 242.160156 131.804688 217.894531 156.253906 Z M 174.035156 203.390625 C 165.988281 213.199219 159 222.101562 152.738281 230.078125 C 119.523438 272.359375 107.953125 287.003906 68.050781 275.734375 C 76.652344 263.734375 86.03125 250.980469 95.925781 237.972656 L 132.238281 238.769531 C 132.261719 238.769531 132.28125 238.769531 132.304688 238.769531 C 134.152344 238.769531 135.660156 237.304688 135.703125 235.457031 C 135.746094 233.605469 134.261719 232.058594 132.390625 232.035156 L 100.984375 231.347656 C 118.085938 209.175781 136.539062 186.574219 155.105469 166.1875 L 204.988281 169.371094 C 194.597656 180.015625 183.863281 191.414062 174.035156 203.390625 Z M 69.296875 201.84375 C 78.332031 186.425781 90.507812 167.886719 105.371094 150.191406 L 118.707031 198.167969 C 98.917969 222.359375 80.160156 247.347656 64.003906 269.800781 C 58.433594 258.445312 50.796875 233.414062 69.296875 201.84375 Z M 265.78125 96.988281 C 263.070312 88.601562 253.648438 83.308594 236.09375 80.320312 C 182.617188 71.179688 137.808594 103.09375 104.984375 140.296875 C 104.488281 140.621094 104.125 141.050781 103.886719 141.542969 C 87.023438 160.855469 73.382812 181.480469 63.445312 198.46875 C 41.828125 235.347656 53.660156 264.960938 59.660156 275.882812 C 31.308594 315.625 12.054688 345.96875 11.625 346.679688 C 10.613281 348.25 11.109375 350.335938 12.699219 351.300781 C 13.238281 351.667969 13.882812 351.816406 14.488281 351.816406 C 15.605469 351.816406 16.722656 351.257812 17.367188 350.25 C 17.800781 349.558594 36.429688 320.183594 63.960938 281.476562 C 64.046875 281.519531 64.089844 281.625 64.199219 281.648438 C 74.332031 284.660156 82.933594 286.121094 90.527344 286.121094 C 117.289062 286.121094 131.65625 267.84375 158.074219 234.207031 C 164.332031 226.273438 171.28125 217.414062 179.304688 207.648438 C 193.070312 190.855469 208.816406 174.984375 222.714844 160.984375 C 250.636719 132.835938 270.8125 112.511719 265.78125 96.988281 " fill-opacity="1" fill-rule="nonzero"/></g><path fill="#4e9096" d="M 206.28125 323.128906 C 184.1875 338.957031 169.238281 339.644531 162.632812 335.042969 C 159.148438 332.613281 157.878906 328.65625 159.171875 324.164062 C 164.3125 306.269531 159.515625 298.746094 154.566406 295.582031 C 144.972656 289.433594 126.96875 295.304688 108.792969 310.550781 C 82.441406 332.65625 65.296875 343.753906 65.125 343.859375 C 63.554688 344.871094 63.101562 346.957031 64.132812 348.507812 C 64.78125 349.496094 65.875 350.054688 66.972656 350.054688 C 67.617188 350.054688 68.242188 349.859375 68.824219 349.496094 C 69.535156 349.042969 86.441406 338.097656 113.179688 315.691406 C 130.300781 301.324219 145.125 297.539062 150.886719 301.238281 C 155.148438 303.96875 155.773438 311.453125 152.652344 322.3125 C 150.585938 329.496094 152.910156 336.507812 158.738281 340.550781 C 169.816406 348.269531 189.070312 343.773438 210.257812 328.59375 C 211.765625 327.515625 212.109375 325.410156 211.011719 323.90625 C 209.914062 322.378906 207.785156 322.035156 206.28125 323.128906 " fill-opacity="1" fill-rule="nonzero"/><path fill="#4d4d4d" d="M 392.902344 205.515625 L 392.902344 347.832031 C 392.902344 348.972656 394.042969 350.390625 396.042969 350.390625 L 432.699219 350.390625 C 434.679688 350.390625 436.097656 348.972656 436.097656 347.832031 L 436.097656 205.515625 Z M 349.148438 162.054688 L 479.570312 162.054688 C 481.570312 162.054688 482.710938 160.933594 482.710938 159.515625 L 482.710938 125.710938 C 482.710938 124.570312 481.570312 123.152344 479.570312 123.152344 L 349.148438 123.152344 C 347.449219 123.152344 346.03125 124.570312 346.03125 125.710938 L 346.03125 159.515625 C 346.03125 160.933594 347.449219 162.054688 349.148438 162.054688 Z M 349.148438 162.054688 " fill-opacity="1" fill-rule="nonzero"/><path fill="#4d4d4d" d="M 600.226562 190.761719 C 600.226562 215.75 566.710938 215.75 566.710938 215.75 L 532.617188 215.75 L 532.617188 163.773438 L 566.710938 163.773438 C 566.710938 163.773438 600.226562 163.492188 600.226562 190.761719 Z M 643.699219 188.203125 C 643.699219 121.453125 566.710938 123.152344 566.710938 123.152344 L 492.542969 123.152344 C 490.84375 123.152344 489.421875 124.570312 489.421875 125.710938 L 489.421875 258.070312 L 566.710938 258.070312 C 566.710938 258.070312 603.367188 256.371094 603.367188 283.058594 C 603.367188 304.953125 580.910156 308.910156 566.710938 308.910156 L 532.898438 308.910156 L 532.898438 350.390625 L 566.710938 350.390625 C 582.050781 350.390625 646.839844 347.554688 646.839844 284.199219 C 646.839844 284.199219 648.261719 248.976562 612.164062 236.761719 C 629.503906 229.664062 643.699219 214.609375 643.699219 188.203125 Z M 643.699219 188.203125 " fill-opacity="1" fill-rule="nonzero"/><path fill="#4d4d4d" d="M 701.550781 205.515625 L 701.550781 347.832031 C 701.550781 348.972656 702.691406 350.390625 704.691406 350.390625 L 741.347656 350.390625 C 743.324219 350.390625 744.746094 348.972656 744.746094 347.832031 L 744.746094 205.515625 Z M 657.796875 162.054688 L 788.21875 162.054688 C 790.21875 162.054688 791.359375 160.933594 791.359375 159.515625 L 791.359375 125.710938 C 791.359375 124.570312 790.21875 123.152344 788.21875 123.152344 L 657.796875 123.152344 C 656.097656 123.152344 654.679688 124.570312 654.679688 125.710938 L 654.679688 159.515625 C 654.679688 160.933594 656.097656 162.054688 657.796875 162.054688 Z M 657.796875 162.054688 " fill-opacity="1" fill-rule="nonzero"/><path stroke-linecap="butt" transform="matrix(0, 8.305157, -8.260272, 0, 308.842783, 71.156361)" fill="none" stroke-linejoin="miter" d="M -0.0000133481 -0.000589912 L 36.794237 -0.000589912 " stroke="#000000" stroke-width="1" stroke-opacity="1" stroke-miterlimit="4"/></svg>